<svg width="84" height="66" viewBox="0 0 84 66" fill="none" xmlns="http://www.w3.org/2000/svg">
<path fill-rule="evenodd" clip-rule="evenodd" d="M32.9027 61.4508C25.1034 68.7179 11.8211 66.7964 5.60213 59.1018C-1.75824 50.0141 -3.22788 32.7902 9.59486 17.3829C15.9551 9.74068 23.6202 3.94638 32.5824 0L36.7157 6.67127C23.9668 12.8623 14.4379 21.2563 13.0875 35.3295C18.8397 35.3295 23.6122 35.1207 27.863 36.645C32.7025 38.3804 35.6421 41.5988 36.8486 45.2894C38.7624 51.0679 37.8347 56.8555 32.9027 61.4508ZM79.1278 61.4508C71.3285 68.7179 58.0461 66.7964 51.8272 59.1018C44.4668 50.0141 42.9972 32.7902 55.8199 17.3829C62.1802 9.74068 69.8453 3.94638 78.8074 0L82.9408 6.67127C70.1918 12.8623 60.6629 21.2563 59.3126 35.3295C65.0648 35.3295 69.8372 35.1207 74.088 36.645C78.9276 38.3804 81.8672 41.5988 83.0736 45.2894C84.9874 51.0679 84.0597 56.8555 79.1278 61.4508Z" fill="#4F00A7"/>
</svg>
