<svg width="76" height="79" viewBox="0 0 76 79" fill="none" xmlns="http://www.w3.org/2000/svg">
<path d="M75.1816 45.1103C74.1402 36.1328 69.8186 26.7098 63.0054 18.5942C56.1922 10.4785 47.6562 4.54194 38.9645 1.93681C29.4649 -0.910438 20.9191 0.619713 15.6048 5.23922C15.3031 5.5007 7.83774 11.8731 7.69174 12.0087C2.12436 16.9672 -0.318667 24.6567 0.74225 33.8569C1.7837 42.8345 6.10524 52.2575 12.9185 60.3731C19.7317 68.4887 28.2677 74.4059 36.9692 77.0304C41.2712 78.3282 45.3884 78.764 49.1551 78.3475C53.282 77.8924 57.4186 76.2169 60.066 73.9411C60.7376 73.3697 65.7891 69.1085 67.7747 67.3556C73.8579 62.0291 76.2815 54.5527 75.1816 45.1103Z" fill="#00DE93"/>
<path d="M27.4992 6.90495C30.4094 6.58536 33.6603 6.93401 37.1156 7.97993C44.6393 10.2558 52.0949 15.4564 58.1198 22.6423C64.1446 29.8282 67.96 38.06 68.8652 45.827C69.712 53.1097 67.8627 59.0366 63.6677 62.5231C59.463 66.0095 53.2727 66.7552 46.2258 64.6343C38.7021 62.3584 31.2465 57.1578 25.2119 49.9719C19.1871 42.786 15.3717 34.5542 14.4665 26.7872C13.6197 19.5045 15.469 13.5776 19.664 10.0912C21.8053 8.3092 24.4624 7.24391 27.4895 6.91464L27.4992 6.90495Z" fill="#4F00A7"/>
<path d="M56.3959 51.9571C56.3959 51.9571 54.644 49.5941 54.1573 48.9355C57.3985 45.1876 56.9507 40.0161 53.6998 35.629C50.5463 31.3872 47.1591 29.9829 42.0103 30.8158C37.9905 31.3969 35.82 31.3194 34.3503 29.3438C33.484 28.1719 32.4231 25.9251 35.0997 23.9592C37.2118 22.4097 39.3726 22.1191 40.7255 22.0223L37.8737 16.599C34.6909 16.812 32.063 18.8942 32.063 18.8942L30.1261 16.2891L27.5176 18.2066C27.5176 18.2066 29.2793 20.5793 29.6589 21.0926C26.6416 24.8211 27.0796 29.6924 30.2331 33.9342C33.1628 37.8758 36.8614 39.2123 42.2439 38.2729C44.9594 37.7596 47.5582 37.5078 49.4756 40.0839C50.3808 41.3041 51.4709 43.6865 48.5121 45.8559C46.7601 47.1439 44.4825 47.8412 41.728 47.938L44.755 53.6035C48.6289 53.4485 51.8019 51.2404 51.8019 51.2404L53.7777 53.9037L56.4154 51.9668L56.3959 51.9571Z" fill="#00DE93"/>
</svg>
